<mxfile host="app.diagrams.net" modified="2024-02-17T05:32:35.869Z" agent="Mozilla/5.0 (Macintosh; Intel Mac OS X 10_15_7) AppleWebKit/537.36 (KHTML, like Gecko) Chrome/121.0.0.0 Safari/537.36" etag="rU--acfIX8dcV6REIyWZ" version="23.1.5" type="device">
  <diagram id="C5RBs43oDa-KdzZeNtuy" name="Page-1">
    <mxGraphModel dx="935" dy="739" grid="1" gridSize="10" guides="1" tooltips="1" connect="1" arrows="1" fold="1" page="1" pageScale="1" pageWidth="827" pageHeight="1169" math="0" shadow="0">
      <root>
        <mxCell id="WIyWlLk6GJQsqaUBKTNV-0" />
        <mxCell id="WIyWlLk6GJQsqaUBKTNV-1" parent="WIyWlLk6GJQsqaUBKTNV-0" />
        <mxCell id="CL2zbTxJvc1c6bwmYWIN-15" value="" style="edgeStyle=orthogonalEdgeStyle;rounded=0;orthogonalLoop=1;jettySize=auto;html=1;" edge="1" parent="WIyWlLk6GJQsqaUBKTNV-1" source="CL2zbTxJvc1c6bwmYWIN-8" target="CL2zbTxJvc1c6bwmYWIN-14">
          <mxGeometry relative="1" as="geometry" />
        </mxCell>
        <mxCell id="CL2zbTxJvc1c6bwmYWIN-34" style="edgeStyle=orthogonalEdgeStyle;rounded=0;orthogonalLoop=1;jettySize=auto;html=1;" edge="1" parent="WIyWlLk6GJQsqaUBKTNV-1" source="CL2zbTxJvc1c6bwmYWIN-11">
          <mxGeometry relative="1" as="geometry">
            <mxPoint x="420" y="80" as="targetPoint" />
            <Array as="points">
              <mxPoint x="420" y="40" />
              <mxPoint x="420" y="40" />
            </Array>
          </mxGeometry>
        </mxCell>
        <mxCell id="CL2zbTxJvc1c6bwmYWIN-8" value="아이스크림 부분을 그린다" style="rounded=0;whiteSpace=wrap;html=1;" vertex="1" parent="WIyWlLk6GJQsqaUBKTNV-1">
          <mxGeometry x="300" y="80" width="240" height="50" as="geometry" />
        </mxCell>
        <mxCell id="CL2zbTxJvc1c6bwmYWIN-25" value="" style="edgeStyle=orthogonalEdgeStyle;rounded=0;orthogonalLoop=1;jettySize=auto;html=1;" edge="1" parent="WIyWlLk6GJQsqaUBKTNV-1" source="CL2zbTxJvc1c6bwmYWIN-10" target="CL2zbTxJvc1c6bwmYWIN-20">
          <mxGeometry relative="1" as="geometry" />
        </mxCell>
        <mxCell id="CL2zbTxJvc1c6bwmYWIN-10" value="막대기 부분을 그린다" style="rounded=0;whiteSpace=wrap;html=1;" vertex="1" parent="WIyWlLk6GJQsqaUBKTNV-1">
          <mxGeometry x="300" y="380" width="240" height="50" as="geometry" />
        </mxCell>
        <mxCell id="CL2zbTxJvc1c6bwmYWIN-12" value="끝" style="ellipse;whiteSpace=wrap;html=1;" vertex="1" parent="WIyWlLk6GJQsqaUBKTNV-1">
          <mxGeometry x="360" y="680" width="120" height="40" as="geometry" />
        </mxCell>
        <mxCell id="CL2zbTxJvc1c6bwmYWIN-18" value="" style="edgeStyle=orthogonalEdgeStyle;rounded=0;orthogonalLoop=1;jettySize=auto;html=1;" edge="1" parent="WIyWlLk6GJQsqaUBKTNV-1" source="CL2zbTxJvc1c6bwmYWIN-14" target="CL2zbTxJvc1c6bwmYWIN-16">
          <mxGeometry relative="1" as="geometry" />
        </mxCell>
        <mxCell id="CL2zbTxJvc1c6bwmYWIN-53" style="edgeStyle=orthogonalEdgeStyle;rounded=0;orthogonalLoop=1;jettySize=auto;html=1;exitX=1;exitY=0.5;exitDx=0;exitDy=0;" edge="1" parent="WIyWlLk6GJQsqaUBKTNV-1" source="CL2zbTxJvc1c6bwmYWIN-14">
          <mxGeometry relative="1" as="geometry">
            <mxPoint x="420" y="140" as="targetPoint" />
            <Array as="points">
              <mxPoint x="640" y="200" />
              <mxPoint x="640" y="140" />
            </Array>
          </mxGeometry>
        </mxCell>
        <mxCell id="CL2zbTxJvc1c6bwmYWIN-14" value="아이스크림 가로&lt;br&gt;*의 수가 맞게 출력 되었는가?" style="rhombus;whiteSpace=wrap;html=1;" vertex="1" parent="WIyWlLk6GJQsqaUBKTNV-1">
          <mxGeometry x="280" y="160" width="280" height="80" as="geometry" />
        </mxCell>
        <mxCell id="CL2zbTxJvc1c6bwmYWIN-19" value="" style="edgeStyle=orthogonalEdgeStyle;rounded=0;orthogonalLoop=1;jettySize=auto;html=1;" edge="1" parent="WIyWlLk6GJQsqaUBKTNV-1" source="CL2zbTxJvc1c6bwmYWIN-16" target="CL2zbTxJvc1c6bwmYWIN-10">
          <mxGeometry relative="1" as="geometry" />
        </mxCell>
        <mxCell id="CL2zbTxJvc1c6bwmYWIN-16" value="아이스크림 세로&lt;br&gt;줄의 수가 맞게 출력 되었는가?" style="rhombus;whiteSpace=wrap;html=1;" vertex="1" parent="WIyWlLk6GJQsqaUBKTNV-1">
          <mxGeometry x="280" y="270" width="280" height="80" as="geometry" />
        </mxCell>
        <mxCell id="CL2zbTxJvc1c6bwmYWIN-26" value="" style="edgeStyle=orthogonalEdgeStyle;rounded=0;orthogonalLoop=1;jettySize=auto;html=1;" edge="1" parent="WIyWlLk6GJQsqaUBKTNV-1" source="CL2zbTxJvc1c6bwmYWIN-20" target="CL2zbTxJvc1c6bwmYWIN-21">
          <mxGeometry relative="1" as="geometry" />
        </mxCell>
        <mxCell id="CL2zbTxJvc1c6bwmYWIN-20" value="막대기 가로&lt;br&gt;| 의 간격과 수가 맞게 출력 되었는가?" style="rhombus;whiteSpace=wrap;html=1;" vertex="1" parent="WIyWlLk6GJQsqaUBKTNV-1">
          <mxGeometry x="280" y="460" width="280" height="80" as="geometry" />
        </mxCell>
        <mxCell id="CL2zbTxJvc1c6bwmYWIN-27" value="" style="edgeStyle=orthogonalEdgeStyle;rounded=0;orthogonalLoop=1;jettySize=auto;html=1;" edge="1" parent="WIyWlLk6GJQsqaUBKTNV-1" source="CL2zbTxJvc1c6bwmYWIN-21" target="CL2zbTxJvc1c6bwmYWIN-12">
          <mxGeometry relative="1" as="geometry" />
        </mxCell>
        <mxCell id="CL2zbTxJvc1c6bwmYWIN-21" value="막대기 세로&lt;br&gt;줄의 수가 맞게 출력 되었는가?" style="rhombus;whiteSpace=wrap;html=1;" vertex="1" parent="WIyWlLk6GJQsqaUBKTNV-1">
          <mxGeometry x="280" y="570" width="280" height="80" as="geometry" />
        </mxCell>
        <mxCell id="CL2zbTxJvc1c6bwmYWIN-11" value="시작" style="ellipse;whiteSpace=wrap;html=1;" vertex="1" parent="WIyWlLk6GJQsqaUBKTNV-1">
          <mxGeometry x="360" y="10" width="120" height="40" as="geometry" />
        </mxCell>
        <mxCell id="CL2zbTxJvc1c6bwmYWIN-37" value="Yes" style="text;html=1;align=center;verticalAlign=middle;resizable=0;points=[];autosize=1;strokeColor=none;fillColor=none;" vertex="1" parent="WIyWlLk6GJQsqaUBKTNV-1">
          <mxGeometry x="360" y="240" width="40" height="30" as="geometry" />
        </mxCell>
        <mxCell id="CL2zbTxJvc1c6bwmYWIN-38" value="Yes" style="text;html=1;align=center;verticalAlign=middle;resizable=0;points=[];autosize=1;strokeColor=none;fillColor=none;" vertex="1" parent="WIyWlLk6GJQsqaUBKTNV-1">
          <mxGeometry x="360" y="350" width="40" height="30" as="geometry" />
        </mxCell>
        <mxCell id="CL2zbTxJvc1c6bwmYWIN-39" value="Yes" style="text;html=1;align=center;verticalAlign=middle;resizable=0;points=[];autosize=1;strokeColor=none;fillColor=none;" vertex="1" parent="WIyWlLk6GJQsqaUBKTNV-1">
          <mxGeometry x="360" y="540" width="40" height="30" as="geometry" />
        </mxCell>
        <mxCell id="CL2zbTxJvc1c6bwmYWIN-40" value="Yes" style="text;html=1;align=center;verticalAlign=middle;resizable=0;points=[];autosize=1;strokeColor=none;fillColor=none;" vertex="1" parent="WIyWlLk6GJQsqaUBKTNV-1">
          <mxGeometry x="360" y="650" width="40" height="30" as="geometry" />
        </mxCell>
        <mxCell id="CL2zbTxJvc1c6bwmYWIN-54" style="edgeStyle=orthogonalEdgeStyle;rounded=0;orthogonalLoop=1;jettySize=auto;html=1;exitX=1;exitY=0.5;exitDx=0;exitDy=0;" edge="1" parent="WIyWlLk6GJQsqaUBKTNV-1">
          <mxGeometry relative="1" as="geometry">
            <mxPoint x="420" y="250" as="targetPoint" />
            <mxPoint x="560" y="310" as="sourcePoint" />
            <Array as="points">
              <mxPoint x="640" y="310" />
              <mxPoint x="640" y="250" />
            </Array>
          </mxGeometry>
        </mxCell>
        <mxCell id="CL2zbTxJvc1c6bwmYWIN-55" style="edgeStyle=orthogonalEdgeStyle;rounded=0;orthogonalLoop=1;jettySize=auto;html=1;exitX=1;exitY=0.5;exitDx=0;exitDy=0;" edge="1" parent="WIyWlLk6GJQsqaUBKTNV-1">
          <mxGeometry relative="1" as="geometry">
            <mxPoint x="420" y="440" as="targetPoint" />
            <mxPoint x="560" y="500" as="sourcePoint" />
            <Array as="points">
              <mxPoint x="640" y="500" />
              <mxPoint x="640" y="440" />
            </Array>
          </mxGeometry>
        </mxCell>
        <mxCell id="CL2zbTxJvc1c6bwmYWIN-56" style="edgeStyle=orthogonalEdgeStyle;rounded=0;orthogonalLoop=1;jettySize=auto;html=1;exitX=1;exitY=0.5;exitDx=0;exitDy=0;" edge="1" parent="WIyWlLk6GJQsqaUBKTNV-1">
          <mxGeometry relative="1" as="geometry">
            <mxPoint x="420" y="550" as="targetPoint" />
            <mxPoint x="560" y="610" as="sourcePoint" />
            <Array as="points">
              <mxPoint x="640" y="610" />
              <mxPoint x="640" y="550" />
            </Array>
          </mxGeometry>
        </mxCell>
        <mxCell id="CL2zbTxJvc1c6bwmYWIN-57" value="No" style="text;html=1;align=center;verticalAlign=middle;resizable=0;points=[];autosize=1;strokeColor=none;fillColor=none;" vertex="1" parent="WIyWlLk6GJQsqaUBKTNV-1">
          <mxGeometry x="580" y="200" width="40" height="30" as="geometry" />
        </mxCell>
        <mxCell id="CL2zbTxJvc1c6bwmYWIN-58" value="No" style="text;html=1;align=center;verticalAlign=middle;resizable=0;points=[];autosize=1;strokeColor=none;fillColor=none;" vertex="1" parent="WIyWlLk6GJQsqaUBKTNV-1">
          <mxGeometry x="580" y="310" width="40" height="30" as="geometry" />
        </mxCell>
        <mxCell id="CL2zbTxJvc1c6bwmYWIN-59" value="No" style="text;html=1;align=center;verticalAlign=middle;resizable=0;points=[];autosize=1;strokeColor=none;fillColor=none;" vertex="1" parent="WIyWlLk6GJQsqaUBKTNV-1">
          <mxGeometry x="580" y="500" width="40" height="30" as="geometry" />
        </mxCell>
        <mxCell id="CL2zbTxJvc1c6bwmYWIN-60" value="No" style="text;html=1;align=center;verticalAlign=middle;resizable=0;points=[];autosize=1;strokeColor=none;fillColor=none;" vertex="1" parent="WIyWlLk6GJQsqaUBKTNV-1">
          <mxGeometry x="580" y="620" width="40" height="30" as="geometry" />
        </mxCell>
      </root>
    </mxGraphModel>
  </diagram>
</mxfile>
